<svg xmlns="http://www.w3.org/2000/svg" xmlns:xlink="http://www.w3.org/1999/xlink" contentStyleType="text/css" data-diagram-type="ACTIVITY" height="884px" preserveAspectRatio="none" style="width:399px;height:884px;background:#FFFFFF;" version="1.1" viewBox="0 0 399 884" width="399px" zoomAndPan="magnify"><?plantuml 1.2026.6?><defs/><g><g class="title" data-source-line="2"><text fill="#000000" font-family="sans-serif" font-size="14" font-weight="700" lengthAdjust="spacing" textLength="163.3311" x="116.9216" y="32.9951">Import Pipeline Flow</text></g><ellipse cx="111.4268" cy="62.2969" fill="#222222" rx="10" ry="10" style="stroke:#222222;stroke-width:1;"/><rect fill="#F1F1F1" height="33.9688" rx="12.5" ry="12.5" style="stroke:#181818;stroke-width:0.5;" width="159.043" x="31.9053" y="92.2969"/><text fill="#000000" font-family="sans-serif" font-size="12" lengthAdjust="spacing" textLength="139.043" x="41.9053" y="113.4355">PG read wiki_metadata</text><rect fill="#F1F1F1" height="47.9375" rx="12.5" ry="12.5" style="stroke:#181818;stroke-width:0.5;" width="190.8535" x="16" y="146.2656"/><text fill="#000000" font-family="sans-serif" font-size="12" lengthAdjust="spacing" textLength="103.5" x="26" y="167.4043">Incremental sync</text><text fill="#000000" font-family="sans-serif" font-size="12" lengthAdjust="spacing" textLength="170.8535" x="26" y="181.373">(PG vs MySQL existing docs)</text><rect fill="#F1F1F1" height="47.9375" rx="12.5" ry="12.5" style="stroke:#181818;stroke-width:0.5;" width="155.4453" x="33.7041" y="214.2031"/><text fill="#000000" font-family="sans-serif" font-size="12" lengthAdjust="spacing" textLength="117.0938" x="43.7041" y="235.3418">Image path replace</text><text fill="#000000" font-family="sans-serif" font-size="12" lengthAdjust="spacing" textLength="135.4453" x="43.7041" y="249.3105">(relative -&gt; HTTP URL)</text><rect fill="#F1F1F1" height="33.9688" rx="12.5" ry="12.5" style="stroke:#181818;stroke-width:0.5;" width="135.752" x="43.5508" y="330.543"/><text fill="#000000" font-family="sans-serif" font-size="12" lengthAdjust="spacing" textLength="115.752" x="53.5508" y="351.6816">REST API create KB</text><polygon fill="#F1F1F1" points="83.3252,282.1406,139.5283,282.1406,151.5283,294.1406,139.5283,306.1406,83.3252,306.1406,71.3252,294.1406,83.3252,282.1406" style="stroke:#181818;stroke-width:0.5;stroke-linejoin:miter;stroke-miterlimit:10;"/><text fill="#000000" font-family="sans-serif" font-size="11" lengthAdjust="spacing" textLength="13.7017" x="115.4268" y="316.3511">no</text><text fill="#000000" font-family="sans-serif" font-size="11" lengthAdjust="spacing" textLength="56.2031" x="83.3252" y="297.9487">KB exists?</text><text fill="#000000" font-family="sans-serif" font-size="11" lengthAdjust="spacing" textLength="19.0083" x="151.5283" y="291.5464">yes</text><polygon fill="#F1F1F1" points="111.4268,384.5117,123.4268,396.5117,111.4268,408.5117,99.4268,396.5117,111.4268,384.5117" style="stroke:#181818;stroke-width:0.5;stroke-linejoin:miter;stroke-miterlimit:10;"/><rect fill="#F1F1F1" height="47.9375" rx="12.5" ry="12.5" style="stroke:#181818;stroke-width:0.5;" width="184.7949" x="19.0293" y="428.5117"/><text fill="#000000" font-family="sans-serif" font-size="12" lengthAdjust="spacing" textLength="139.0371" x="29.0293" y="449.6504">Insert Document + File</text><text fill="#000000" font-family="sans-serif" font-size="12" lengthAdjust="spacing" textLength="164.7949" x="29.0293" y="463.6191">(DB direct, location=MinIO)</text><rect fill="#F1F1F1" height="33.9688" rx="12.5" ry="12.5" style="stroke:#181818;stroke-width:0.5;" width="147.3477" x="37.7529" y="496.4492"/><text fill="#000000" font-family="sans-serif" font-size="12" lengthAdjust="spacing" textLength="127.3477" x="47.7529" y="517.5879">Queue tasks to Redis</text><rect fill="#F1F1F1" height="47.9375" rx="12.5" ry="12.5" style="stroke:#181818;stroke-width:0.5;" width="169.291" x="26.7813" y="550.418"/><text fill="#000000" font-family="sans-serif" font-size="12" lengthAdjust="spacing" textLength="149.291" x="36.7813" y="571.5566">Task executors consume</text><text fill="#000000" font-family="sans-serif" font-size="12" lengthAdjust="spacing" textLength="140.4668" x="36.7813" y="585.5254">chunking + embedding</text><rect fill="#F1F1F1" height="47.9375" rx="12.5" ry="12.5" style="stroke:#181818;stroke-width:0.5;" width="119.1523" x="51.8506" y="618.3555"/><text fill="#000000" font-family="sans-serif" font-size="12" lengthAdjust="spacing" textLength="97.0313" x="61.8506" y="639.4941">Wait for all docs</text><text fill="#000000" font-family="sans-serif" font-size="12" lengthAdjust="spacing" textLength="99.1523" x="61.8506" y="653.4629">progress &gt;= 1.0</text><rect fill="#F1F1F1" height="33.9688" rx="12.5" ry="12.5" style="stroke:#181818;stroke-width:0.5;" width="121.1445" x="50.8545" y="734.6953"/><text fill="#000000" font-family="sans-serif" font-size="12" lengthAdjust="spacing" textLength="101.1445" x="60.8545" y="755.834">Retry failed docs</text><polygon fill="#F1F1F1" points="92.1096,686.293,130.7439,686.293,142.7439,698.293,130.7439,710.293,92.1096,710.293,80.1096,698.293,92.1096,686.293" style="stroke:#181818;stroke-width:0.5;stroke-linejoin:miter;stroke-miterlimit:10;"/><text fill="#000000" font-family="sans-serif" font-size="11" lengthAdjust="spacing" textLength="19.0083" x="115.4268" y="720.5034">yes</text><text fill="#000000" font-family="sans-serif" font-size="11" lengthAdjust="spacing" textLength="38.6343" x="92.1096" y="702.1011">errors?</text><polygon fill="#F1F1F1" points="111.4268,788.6641,123.4268,800.6641,111.4268,812.6641,99.4268,800.6641,111.4268,788.6641" style="stroke:#181818;stroke-width:0.5;stroke-linejoin:miter;stroke-miterlimit:10;"/><path d="M142.4268,823.5313 L142.4268,839.6641 L122.4268,843.6641 L142.4268,847.6641 L142.4268,863.7969 A0,0 0 0 0 142.4268,863.7969 L378.1743,863.7969 A0,0 0 0 0 378.1743,863.7969 L378.1743,833.5313 L368.1743,823.5313 L142.4268,823.5313 A0,0 0 0 0 142.4268,823.5313" fill="#FEFFDD" style="stroke:#181818;stroke-width:0.5;"/><path d="M368.1743,823.5313 L368.1743,833.5313 L378.1743,833.5313 L368.1743,823.5313" fill="#FEFFDD" style="stroke:#181818;stroke-width:0.5;"/><text fill="#000000" font-family="sans-serif" font-size="13" lengthAdjust="spacing" textLength="106.2026" x="148.4268" y="840.5981">batch_import.py</text><text fill="#000000" font-family="sans-serif" font-size="13" lengthAdjust="spacing" text-decoration="line-through" textLength="72.9727" x="258.7617" y="840.5981">source wiki</text><text fill="#000000" font-family="sans-serif" font-size="13" lengthAdjust="spacing" textLength="27.3076" x="335.8667" y="840.5981">wait</text><text fill="#000000" font-family="sans-serif" font-size="13" lengthAdjust="spacing" textLength="194.4985" x="148.4268" y="855.731">--doc-id N (for single doc test)</text><ellipse cx="111.4268" cy="843.6641" fill="none" rx="11" ry="11" style="stroke:#222222;stroke-width:1;"/><ellipse cx="111.4268" cy="843.6641" fill="#222222" rx="6" ry="6" style="stroke:#222222;stroke-width:1;"/><line style="stroke:#181818;stroke-width:1;" x1="111.4268" x2="111.4268" y1="72.2969" y2="92.2969"/><polygon fill="#181818" points="107.4268,82.2969,111.4268,92.2969,115.4268,82.2969,111.4268,86.2969" style="stroke:#181818;stroke-width:1;stroke-linejoin:miter;stroke-miterlimit:10;"/><line style="stroke:#181818;stroke-width:1;" x1="111.4268" x2="111.4268" y1="126.2656" y2="146.2656"/><polygon fill="#181818" points="107.4268,136.2656,111.4268,146.2656,115.4268,136.2656,111.4268,140.2656" style="stroke:#181818;stroke-width:1;stroke-linejoin:miter;stroke-miterlimit:10;"/><line style="stroke:#181818;stroke-width:1;" x1="111.4268" x2="111.4268" y1="194.2031" y2="214.2031"/><polygon fill="#181818" points="107.4268,204.2031,111.4268,214.2031,115.4268,204.2031,111.4268,208.2031" style="stroke:#181818;stroke-width:1;stroke-linejoin:miter;stroke-miterlimit:10;"/><line style="stroke:#181818;stroke-width:1;" x1="111.4268" x2="111.4268" y1="306.1406" y2="330.543"/><polygon fill="#181818" points="107.4268,320.543,111.4268,330.543,115.4268,320.543,111.4268,324.543" style="stroke:#181818;stroke-width:1;stroke-linejoin:miter;stroke-miterlimit:10;"/><line style="stroke:#181818;stroke-width:1;" x1="151.5283" x2="189.3027" y1="294.1406" y2="294.1406"/><polygon fill="#181818" points="185.3027,337.5273,189.3027,347.5273,193.3027,337.5273,189.3027,341.5273" style="stroke:#181818;stroke-width:1;stroke-linejoin:miter;stroke-miterlimit:10;"/><line style="stroke:#181818;stroke-width:1;" x1="189.3027" x2="189.3027" y1="294.1406" y2="396.5117"/><line style="stroke:#181818;stroke-width:1;" x1="189.3027" x2="123.4268" y1="396.5117" y2="396.5117"/><polygon fill="#181818" points="133.4268,392.5117,123.4268,396.5117,133.4268,400.5117,129.4268,396.5117" style="stroke:#181818;stroke-width:1;stroke-linejoin:miter;stroke-miterlimit:10;"/><line style="stroke:#181818;stroke-width:1;" x1="111.4268" x2="111.4268" y1="364.5117" y2="384.5117"/><polygon fill="#181818" points="107.4268,374.5117,111.4268,384.5117,115.4268,374.5117,111.4268,378.5117" style="stroke:#181818;stroke-width:1;stroke-linejoin:miter;stroke-miterlimit:10;"/><line style="stroke:#181818;stroke-width:1;" x1="111.4268" x2="111.4268" y1="262.1406" y2="282.1406"/><polygon fill="#181818" points="107.4268,272.1406,111.4268,282.1406,115.4268,272.1406,111.4268,276.1406" style="stroke:#181818;stroke-width:1;stroke-linejoin:miter;stroke-miterlimit:10;"/><line style="stroke:#181818;stroke-width:1;" x1="111.4268" x2="111.4268" y1="408.5117" y2="428.5117"/><polygon fill="#181818" points="107.4268,418.5117,111.4268,428.5117,115.4268,418.5117,111.4268,422.5117" style="stroke:#181818;stroke-width:1;stroke-linejoin:miter;stroke-miterlimit:10;"/><line style="stroke:#181818;stroke-width:1;" x1="111.4268" x2="111.4268" y1="476.4492" y2="496.4492"/><polygon fill="#181818" points="107.4268,486.4492,111.4268,496.4492,115.4268,486.4492,111.4268,490.4492" style="stroke:#181818;stroke-width:1;stroke-linejoin:miter;stroke-miterlimit:10;"/><line style="stroke:#181818;stroke-width:1;" x1="111.4268" x2="111.4268" y1="530.418" y2="550.418"/><polygon fill="#181818" points="107.4268,540.418,111.4268,550.418,115.4268,540.418,111.4268,544.418" style="stroke:#181818;stroke-width:1;stroke-linejoin:miter;stroke-miterlimit:10;"/><line style="stroke:#181818;stroke-width:1;" x1="111.4268" x2="111.4268" y1="598.3555" y2="618.3555"/><polygon fill="#181818" points="107.4268,608.3555,111.4268,618.3555,115.4268,608.3555,111.4268,612.3555" style="stroke:#181818;stroke-width:1;stroke-linejoin:miter;stroke-miterlimit:10;"/><line style="stroke:#181818;stroke-width:1;" x1="111.4268" x2="111.4268" y1="710.293" y2="734.6953"/><polygon fill="#181818" points="107.4268,724.6953,111.4268,734.6953,115.4268,724.6953,111.4268,728.6953" style="stroke:#181818;stroke-width:1;stroke-linejoin:miter;stroke-miterlimit:10;"/><line style="stroke:#181818;stroke-width:1;" x1="142.7439" x2="181.999" y1="698.293" y2="698.293"/><polygon fill="#181818" points="177.999,741.6797,181.999,751.6797,185.999,741.6797,181.999,745.6797" style="stroke:#181818;stroke-width:1;stroke-linejoin:miter;stroke-miterlimit:10;"/><line style="stroke:#181818;stroke-width:1;" x1="181.999" x2="181.999" y1="698.293" y2="800.6641"/><line style="stroke:#181818;stroke-width:1;" x1="181.999" x2="123.4268" y1="800.6641" y2="800.6641"/><polygon fill="#181818" points="133.4268,796.6641,123.4268,800.6641,133.4268,804.6641,129.4268,800.6641" style="stroke:#181818;stroke-width:1;stroke-linejoin:miter;stroke-miterlimit:10;"/><line style="stroke:#181818;stroke-width:1;" x1="111.4268" x2="111.4268" y1="768.6641" y2="788.6641"/><polygon fill="#181818" points="107.4268,778.6641,111.4268,788.6641,115.4268,778.6641,111.4268,782.6641" style="stroke:#181818;stroke-width:1;stroke-linejoin:miter;stroke-miterlimit:10;"/><line style="stroke:#181818;stroke-width:1;" x1="111.4268" x2="111.4268" y1="666.293" y2="686.293"/><polygon fill="#181818" points="107.4268,676.293,111.4268,686.293,115.4268,676.293,111.4268,680.293" style="stroke:#181818;stroke-width:1;stroke-linejoin:miter;stroke-miterlimit:10;"/><line style="stroke:#181818;stroke-width:1;" x1="111.4268" x2="111.4268" y1="812.6641" y2="832.6641"/><polygon fill="#181818" points="107.4268,822.6641,111.4268,832.6641,115.4268,822.6641,111.4268,826.6641" style="stroke:#181818;stroke-width:1;stroke-linejoin:miter;stroke-miterlimit:10;"/><?plantuml-src LP51Rzim38Nl-XNl6ADpiLrJjCEohblGTalJ3Bi4A1I9iGNBaY7IpVplHwVeOJU9U7py7ibTI8CjjiV1kgufUKp-QuwvuDG68ID18c7T3xa8Dc6W61BXBkQJCIosY5bklgEGzJY5Bhpq9DPRiLTckKwkK4z9R0HFoUtJGgMlZCVf-Ua1z3UmXDJ0PyVLhEzjGnYijEetHEj8Emf5A-6LKD_WnswtmU_jWuh34OlxrPi7VwuWBIKi9kBAK6J28kNA0Cljj-STlcpMK1GhXFlLbQ7amt76Oz9CjzcDCoGkS1VYFF9s1HyAEVc0c9rEp-dwCQJrhndoQQIH89OxXcHioGVMyauBIaDkb5mOBYTMrtroxPYwEUG5g3-Gz_fM-HyR14TTietnd7-VXfARGioukSQdouzl4QaKjVi_tvoAf4muMkNrv_RtK2nvC2PbJLf2qugA3rPS-nBE1xmS9jGrvx4uEfzBVoT5KLbTgqyTF7vYCOEnWkhXjGWXbceUWDdu7m00?></g></svg>