<svg xmlns="http://www.w3.org/2000/svg" xmlns:xlink="http://www.w3.org/1999/xlink" contentStyleType="text/css" data-diagram-type="DESCRIPTION" height="444px" preserveAspectRatio="none" style="width:2133px;height:444px;background:#FFFFFF;" version="1.1" viewBox="0 0 2133 444" width="2133px" zoomAndPan="magnify"><?plantuml 1.2026.6?><defs/><g><g class="title" data-source-line="2"><text fill="#000000" font-family="sans-serif" font-size="14" font-weight="700" lengthAdjust="spacing" textLength="234.7666" x="945.6767" y="22.9951">RAGFlow KB Ops Architecture</text></g><!--cluster dify--><g class="cluster" data-qualified-name="dify" data-source-line="5" id="ent0002"><rect fill="none" height="228.72" rx="2.5" ry="2.5" style="stroke:#181818;stroke-width:1;" width="262" x="1545.12" y="201.6969"/><text fill="#000000" font-family="sans-serif" font-size="14" font-weight="700" lengthAdjust="spacing" textLength="111.2275" x="1620.5062" y="216.692">Dify Workflow</text></g><!--cluster ops--><g class="cluster" data-qualified-name="ops" data-source-line="10" id="ent0006"><rect fill="none" height="260.72" rx="2.5" ry="2.5" style="stroke:#181818;stroke-width:1;" width="272" x="1847.12" y="169.6969"/><text fill="#000000" font-family="sans-serif" font-size="14" font-weight="700" lengthAdjust="spacing" textLength="111.5625" x="1927.3388" y="184.692">kb_ops_server</text><text fill="#000000" font-family="sans-serif" font-size="14" font-weight="700" lengthAdjust="spacing" textLength="57.3604" x="1954.4398" y="200.9889">(:8100)</text></g><!--entity Import--><g class="entity" data-qualified-name="dify.Import" data-source-line="6" id="ent0003"><ellipse cx="1605.1249" cy="278.2205" fill="#F1F1F1" rx="35.8549" ry="14.5236" style="stroke:#181818;stroke-width:0.5;"/><text fill="#000000" font-family="sans-serif" font-size="14" lengthAdjust="spacing" textLength="46.4639" x="1581.893" y="282.8689">Import</text></g><!--entity Cleanup--><g class="entity" data-qualified-name="dify.Cleanup" data-source-line="7" id="ent0004"><ellipse cx="1720.1217" cy="278.2205" fill="#F1F1F1" rx="43.6517" ry="14.5236" style="stroke:#181818;stroke-width:0.5;"/><text fill="#000000" font-family="sans-serif" font-size="14" lengthAdjust="spacing" textLength="57.4902" x="1691.3766" y="282.8689">Cleanup</text></g><!--entity Status--><g class="entity" data-qualified-name="dify.Status" data-source-line="8" id="ent0005"><ellipse cx="1605.125" cy="391.9005" fill="#F1F1F1" rx="34.545" ry="14.5236" style="stroke:#181818;stroke-width:0.5;"/><text fill="#000000" font-family="sans-serif" font-size="14" lengthAdjust="spacing" textLength="44.6113" x="1582.8193" y="396.5489">Status</text></g><!--entity /import--><g class="entity" data-qualified-name="ops..import" data-source-line="11" id="ent0007"><ellipse cx="1910.121" cy="278.2205" fill="#F1F1F1" rx="39.021" ry="14.5236" style="stroke:#181818;stroke-width:0.5;"/><text fill="#000000" font-family="sans-serif" font-size="14" lengthAdjust="spacing" textLength="50.9414" x="1884.6503" y="282.8689">/import</text></g><!--entity /cleanup--><g class="entity" data-qualified-name="ops..cleanup" data-source-line="12" id="ent0008"><ellipse cx="2030.1176" cy="278.2205" fill="#F1F1F1" rx="45.5176" ry="14.5236" style="stroke:#181818;stroke-width:0.5;"/><text fill="#000000" font-family="sans-serif" font-size="14" lengthAdjust="spacing" textLength="60.1289" x="2000.0531" y="282.8689">/cleanup</text></g><!--entity /status--><g class="entity" data-qualified-name="ops..status" data-source-line="13" id="ent0009"><ellipse cx="1910.124" cy="391.9005" fill="#F1F1F1" rx="36.754" ry="14.5236" style="stroke:#181818;stroke-width:0.5;"/><text fill="#000000" font-family="sans-serif" font-size="14" lengthAdjust="spacing" textLength="47.7354" x="1886.2563" y="396.5489">/status</text></g><!--entity user--><g class="entity" data-qualified-name="user" data-source-line="4" id="ent0001"><ellipse cx="38.1221" cy="248.5769" fill="#F1F1F1" rx="8" ry="8" style="stroke:#181818;stroke-width:0.5;"/><path d="M38.1221,256.5769 L38.1221,283.5769 M25.1221,264.5769 L51.1221,264.5769 M38.1221,283.5769 L25.1221,298.5769 M38.1221,283.5769 L51.1221,298.5769" fill="none" style="stroke:#181818;stroke-width:0.5;"/><text fill="#000000" font-family="sans-serif" font-size="14" lengthAdjust="spacing" textLength="64.2441" x="6" y="313.072">Dify User</text></g><!--entity batch--><g class="entity" data-qualified-name="batch" data-source-line="15" id="ent0010"><rect fill="#F1F1F1" height="36.2969" rx="2.5" ry="2.5" style="stroke:#181818;stroke-width:0.5;" width="134.3721" x="361.94" y="260.0769"/><text fill="#000000" font-family="sans-serif" font-size="14" lengthAdjust="spacing" textLength="114.3721" x="371.94" y="283.072">batch_import.py</text></g><!--entity clean--><g class="entity" data-qualified-name="clean" data-source-line="16" id="ent0011"><rect fill="#F1F1F1" height="36.2969" rx="2.5" ry="2.5" style="stroke:#181818;stroke-width:0.5;" width="121.0283" x="1013.61" y="260.0769"/><text fill="#000000" font-family="sans-serif" font-size="14" lengthAdjust="spacing" textLength="101.0283" x="1023.61" y="283.072">kb_cleanup.py</text></g><!--entity pg--><g class="entity" data-qualified-name="pg" data-source-line="17" id="ent0012"><path d="M867.32,265.5769 C867.32,255.5769 923.1174,255.5769 923.1174,255.5769 C923.1174,255.5769 978.9147,255.5769 978.9147,265.5769 L978.9147,290.8738 C978.9147,300.8738 923.1174,300.8738 923.1174,300.8738 C923.1174,300.8738 867.32,300.8738 867.32,290.8738 L867.32,265.5769" fill="#F1F1F1" style="stroke:#181818;stroke-width:0.5;"/><path d="M867.32,265.5769 C867.32,275.5769 923.1174,275.5769 923.1174,275.5769 C923.1174,275.5769 978.9147,275.5769 978.9147,265.5769" fill="none" style="stroke:#181818;stroke-width:0.5;"/><text fill="#000000" font-family="sans-serif" font-size="14" lengthAdjust="spacing" textLength="91.5947" x="877.32" y="292.572">PG metadata</text></g><!--entity minio--><g class="entity" data-qualified-name="minio" data-source-line="18" id="ent0013"><path d="M739.59,265.5769 C739.59,255.5769 786.1178,255.5769 786.1178,255.5769 C786.1178,255.5769 832.6457,255.5769 832.6457,265.5769 L832.6457,290.8738 C832.6457,300.8738 786.1178,300.8738 786.1178,300.8738 C786.1178,300.8738 739.59,300.8738 739.59,290.8738 L739.59,265.5769" fill="#F1F1F1" style="stroke:#181818;stroke-width:0.5;"/><path d="M739.59,265.5769 C739.59,275.5769 786.1178,275.5769 786.1178,275.5769 C786.1178,275.5769 832.6457,275.5769 832.6457,265.5769" fill="none" style="stroke:#181818;stroke-width:0.5;"/><text fill="#000000" font-family="sans-serif" font-size="14" lengthAdjust="spacing" textLength="73.0557" x="749.59" y="292.572">MinIO files</text></g><!--entity mysql--><g class="entity" data-qualified-name="mysql" data-source-line="19" id="ent0014"><path d="M1389.33,265.5769 C1389.33,255.5769 1455.1181,255.5769 1455.1181,255.5769 C1455.1181,255.5769 1520.9062,255.5769 1520.9062,265.5769 L1520.9062,290.8738 C1520.9062,300.8738 1455.1181,300.8738 1455.1181,300.8738 C1455.1181,300.8738 1389.33,300.8738 1389.33,290.8738 L1389.33,265.5769" fill="#F1F1F1" style="stroke:#181818;stroke-width:0.5;"/><path d="M1389.33,265.5769 C1389.33,275.5769 1455.1181,275.5769 1455.1181,275.5769 C1455.1181,275.5769 1520.9062,275.5769 1520.9062,265.5769" fill="none" style="stroke:#181818;stroke-width:0.5;"/><text fill="#000000" font-family="sans-serif" font-size="14" lengthAdjust="spacing" textLength="111.5762" x="1399.33" y="292.572">MySQL rag_flow</text></g><!--entity es--><g class="entity" data-qualified-name="es" data-source-line="20" id="ent0015"><path d="M1262.17,265.5769 C1262.17,255.5769 1308.1202,255.5769 1308.1202,255.5769 C1308.1202,255.5769 1354.0704,255.5769 1354.0704,265.5769 L1354.0704,290.8738 C1354.0704,300.8738 1308.1202,300.8738 1308.1202,300.8738 C1308.1202,300.8738 1262.17,300.8738 1262.17,290.8738 L1262.17,265.5769" fill="#F1F1F1" style="stroke:#181818;stroke-width:0.5;"/><path d="M1262.17,265.5769 C1262.17,275.5769 1308.1202,275.5769 1308.1202,275.5769 C1308.1202,275.5769 1354.0704,275.5769 1354.0704,265.5769" fill="none" style="stroke:#181818;stroke-width:0.5;"/><text fill="#000000" font-family="sans-serif" font-size="14" lengthAdjust="spacing" textLength="71.9004" x="1272.17" y="292.572">ES chunks</text></g><!--entity rag--><g class="entity" data-qualified-name="rag" data-source-line="21" id="ent0016"><rect fill="#F1F1F1" height="36.2969" rx="2.5" ry="2.5" style="stroke:#181818;stroke-width:0.5;" width="108.71" x="595.77" y="260.0769"/><text fill="#000000" font-family="sans-serif" font-size="14" lengthAdjust="spacing" textLength="88.71" x="605.77" y="283.072">RAGFlow API</text></g><!--entity proxy--><g class="entity" data-qualified-name="proxy" data-source-line="22" id="ent0017"><polygon fill="#F1F1F1" points="203.06,265.0769,213.06,255.0769,327.1899,255.0769,327.1899,291.3738,317.1899,301.3738,203.06,301.3738,203.06,265.0769" style="stroke:#181818;stroke-width:0.5;stroke-linejoin:miter;stroke-miterlimit:10;"/><line style="stroke:#181818;stroke-width:0.5;" x1="317.1899" x2="327.1899" y1="265.0769" y2="255.0769"/><line style="stroke:#181818;stroke-width:0.5;" x1="203.06" x2="317.1899" y1="265.0769" y2="265.0769"/><line style="stroke:#181818;stroke-width:0.5;" x1="317.1899" x2="317.1899" y1="265.0769" y2="301.3738"/><text fill="#000000" font-family="sans-serif" font-size="14" lengthAdjust="spacing" textLength="84.1299" x="218.06" y="288.072">Proxy :8090</text></g><g class="entity" data-qualified-name="GMN31" data-source-line="39" id="ent0032"><path d="M340.16,43.2969 L340.16,98.6953 A0,0 0 0 0 340.16,98.6953 L418.17,98.6953 L428.44,259.7069 L426.17,98.6953 L502.0907,98.6953 A0,0 0 0 0 502.0907,98.6953 L502.0907,53.2969 L492.0907,43.2969 L340.16,43.2969 A0,0 0 0 0 340.16,43.2969" fill="#FEFFDD" style="stroke:#181818;stroke-width:0.5;"/><path d="M492.0907,43.2969 L492.0907,53.2969 L502.0907,53.2969 L492.0907,43.2969" fill="#FEFFDD" style="stroke:#181818;stroke-width:0.5;"/><text fill="#000000" font-family="sans-serif" font-size="13" lengthAdjust="spacing" textLength="116.5049" x="346.16" y="60.3638">Incremental sync:</text><text fill="#000000" font-family="sans-serif" font-size="13" lengthAdjust="spacing" textLength="110.4302" x="346.16" y="75.4966">PG vs MySQL diff</text><text fill="#000000" font-family="sans-serif" font-size="13" lengthAdjust="spacing" textLength="140.9307" x="346.16" y="90.6294">new/changed/deleted</text></g><!--link user to dify--><g class="link" data-entity-1="ent0001" data-entity-2="ent0002" data-link-type="dependency" data-source-line="24" id="lnk18"><path d="M70.54,243.4669 C98.07,216.6769 140.17,181.7269 185.12,166.5969 C269.1,138.3269 1712.41,109.4369 1780.12,166.5969 C1789.2825,174.3319 1795.1575,184.7188 1798.7914,196.0545 C1799.2456,197.4715 1799.6649,198.9033 1800.0511,200.3466 C1800.1477,200.7074 1799.0053,196.2244 1799.0978,196.5866" fill="none" id="user-to-dify" style="stroke:#181818;stroke-width:1;"/><polygon fill="#181818" points="1800.3346,201.4312,1801.984,191.7214,1799.0978,196.5866,1794.2327,193.7003,1800.3346,201.4312" style="stroke:#181818;stroke-width:1;stroke-linejoin:miter;stroke-miterlimit:10;"/><text fill="#000000" font-family="sans-serif" font-size="13" lengthAdjust="spacing" textLength="88.0483" x="512.12" y="141.7638">trigger action</text></g><!--link dify to ops--><g class="link" data-entity-1="ent0002" data-entity-2="ent0006" data-link-type="dependency" data-source-line="25" id="lnk19"><path d="M1807.2663,240.1123 C1807.3185,239.9379 1807.371,239.7632 1807.4239,239.5882 C1807.5295,239.2382 1807.6364,238.8872 1807.7446,238.535 C1808.6097,235.7177 1809.5548,232.8313 1810.5863,229.9044 C1818.8375,206.4894 1832.61,180.4869 1855.12,166.5969 C1899.94,138.9369 2051.88,132.6269 2092.12,166.5969 C2093.2653,167.5638 2090.8268,165.0335 2091.8714,166.0799" fill="none" id="dify-to-ops" style="stroke:#181818;stroke-width:1;"/><polygon fill="#181818" points="2095.4039,169.6185,2091.8763,160.4231,2091.8714,166.0799,2086.2145,166.075,2095.4039,169.6185" style="stroke:#181818;stroke-width:1;stroke-linejoin:miter;stroke-miterlimit:10;"/><text fill="#000000" font-family="sans-serif" font-size="13" lengthAdjust="spacing" textLength="102.502" x="1832.12" y="141.7638">HTTP POST/GET</text></g><!--link ops to batch--><g class="link" data-entity-1="ent0006" data-entity-2="ent0010" data-link-type="dependency" data-source-line="26" id="lnk20"><path d="M2095.4039,169.6185 C2094.3593,168.5721 2093.2653,167.5638 2092.12,166.5969 C2027.85,112.3369 657.92,140.0169 578.12,166.5969 C522.62,185.0869 474.5724,229.6101 449.1524,256.2401" fill="none" id="ops-to-batch" style="stroke:#181818;stroke-width:1;"/><polygon fill="#181818" points="445.7,259.8569,454.8077,256.1087,449.1524,256.2401,449.0209,250.5848,445.7,259.8569" style="stroke:#181818;stroke-width:1;stroke-linejoin:miter;stroke-miterlimit:10;"/><text fill="#000000" font-family="sans-serif" font-size="13" lengthAdjust="spacing" textLength="73.5059" x="1418.62" y="141.7638">subprocess</text></g><!--link ops to clean--><g class="link" data-entity-1="ent0006" data-entity-2="ent0011" data-link-type="dependency" data-source-line="27" id="lnk21"><path d="M2095.4039,169.6185 C2094.3593,168.5721 2093.2653,167.5638 2092.12,166.5969 C2020.21,105.8869 1335.33,139.7569 1245.12,166.5969 C1183.62,184.8969 1127.329,229.786 1097.449,256.476" fill="none" id="ops-to-clean" style="stroke:#181818;stroke-width:1;"/><polygon fill="#181818" points="1093.72,259.8069,1103.0969,256.7945,1097.449,256.476,1097.7675,250.8281,1093.72,259.8069" style="stroke:#181818;stroke-width:1;stroke-linejoin:miter;stroke-miterlimit:10;"/><text fill="#000000" font-family="sans-serif" font-size="13" lengthAdjust="spacing" textLength="73.5059" x="2004.62" y="141.7638">subprocess</text></g><!--link ops to mysql--><g class="link" data-entity-1="ent0006" data-entity-2="ent0014" data-link-type="dependency" data-source-line="28" id="lnk22"><path d="M2095.4039,169.6185 C2094.3593,168.5721 2093.2653,167.5638 2092.12,166.5969 C2046.36,127.9669 1607.68,141.8969 1553.12,166.5969 C1512.95,184.7869 1485.2267,224.1506 1469.5767,251.1606" fill="none" id="ops-to-mysql" style="stroke:#181818;stroke-width:1;"/><polygon fill="#181818" points="1467.07,255.4869,1475.0431,249.705,1469.5767,251.1606,1468.1211,245.6943,1467.07,255.4869" style="stroke:#181818;stroke-width:1;stroke-linejoin:miter;stroke-miterlimit:10;"/><text fill="#000000" font-family="sans-serif" font-size="13" lengthAdjust="spacing" textLength="93.0186" x="1610.62" y="141.7638">SELECT status</text></g><!--link batch to pg--><g class="link" data-entity-1="ent0010" data-entity-2="ent0012" data-link-type="dependency" data-source-line="29" id="lnk23"><path d="M445.7,259.8569 C471.12,233.2269 522.62,185.0869 578.12,166.5969 C692.82,128.3969 743.79,109.0869 850.12,166.5969 C884.75,185.3269 903.8215,223.7263 913.9015,250.5563" fill="none" id="batch-to-pg" style="stroke:#181818;stroke-width:1;"/><polygon fill="#181818" points="915.66,255.2369,916.2392,245.4051,913.9015,250.5563,908.7503,248.2186,915.66,255.2369" style="stroke:#181818;stroke-width:1;stroke-linejoin:miter;stroke-miterlimit:10;"/><text fill="#000000" font-family="sans-serif" font-size="13" lengthAdjust="spacing" textLength="64.397" x="607.12" y="141.7638">read rows</text></g><!--link batch to minio--><g class="link" data-entity-1="ent0010" data-entity-2="ent0013" data-link-type="dependency" data-source-line="30" id="lnk24"><path d="M445.7,259.8569 C471.12,233.2269 522.62,185.0869 578.12,166.5969 C638.84,146.3769 666.74,134.5169 722.12,166.5969 C754.98,185.6369 770.9847,223.8173 778.9947,250.5473" fill="none" id="batch-to-minio" style="stroke:#181818;stroke-width:1;"/><polygon fill="#181818" points="780.43,255.3369,781.6782,245.5674,778.9947,250.5473,774.0149,247.8638,780.43,255.3369" style="stroke:#181818;stroke-width:1;stroke-linejoin:miter;stroke-miterlimit:10;"/><text fill="#000000" font-family="sans-serif" font-size="13" lengthAdjust="spacing" textLength="60.2646" x="678.12" y="141.7638">read files</text></g><!--link batch to mysql--><g class="link" data-entity-1="ent0010" data-entity-2="ent0014" data-link-type="dependency" data-source-line="31" id="lnk25"><path d="M445.7,259.8569 C471.12,233.2269 522.62,185.0869 578.12,166.5969 C661.72,138.7569 1292.28,127.2569 1371.12,166.5969 C1408.01,185.0069 1430.8331,223.6571 1443.4231,250.5971" fill="none" id="batch-to-mysql" style="stroke:#181818;stroke-width:1;"/><polygon fill="#181818" points="1445.54,255.1269,1445.3534,245.2798,1443.4231,250.5971,1438.1058,248.6668,1445.54,255.1269" style="stroke:#181818;stroke-width:1;stroke-linejoin:miter;stroke-miterlimit:10;"/><text fill="#000000" font-family="sans-serif" font-size="13" lengthAdjust="spacing" textLength="71.3223" x="901.62" y="141.7638">insert docs</text></g><!--link batch to rag--><g class="link" data-entity-1="ent0010" data-entity-2="ent0016" data-link-type="dependency" data-source-line="32" id="lnk26"><path d="M496.63,278.2169 C528.36,278.2169 560.7,278.2169 590.61,278.2169" fill="none" id="batch-to-rag" style="stroke:#181818;stroke-width:1;"/><polygon fill="#181818" points="595.61,278.2169,586.61,274.2169,590.61,278.2169,586.61,282.2169,595.61,278.2169" style="stroke:#181818;stroke-width:1;stroke-linejoin:miter;stroke-miterlimit:10;"/><text fill="#000000" font-family="sans-serif" font-size="13" lengthAdjust="spacing" textLength="63.1274" x="514.54" y="271.2838">create KB</text></g><!--link clean to mysql--><g class="link" data-entity-1="ent0011" data-entity-2="ent0014" data-link-type="dependency" data-source-line="33" id="lnk27"><path d="M1093.72,259.8069 C1123.6,233.1169 1183.62,184.8969 1245.12,166.5969 C1298.8,150.6269 1321.01,141.5969 1371.12,166.5969 C1408.01,185.0069 1430.8331,223.6571 1443.4231,250.5971" fill="none" id="clean-to-mysql" style="stroke:#181818;stroke-width:1;"/><polygon fill="#181818" points="1445.54,255.1269,1445.3534,245.2798,1443.4231,250.5971,1438.1058,248.6668,1445.54,255.1269" style="stroke:#181818;stroke-width:1;stroke-linejoin:miter;stroke-miterlimit:10;"/><text fill="#000000" font-family="sans-serif" font-size="13" lengthAdjust="spacing" textLength="75.2134" x="1224.62" y="141.7638">delete docs</text></g><!--link clean to es--><g class="link" data-entity-1="ent0011" data-entity-2="ent0015" data-link-type="dependency" data-source-line="34" id="lnk28"><path d="M1134.99,278.2169 C1174.67,278.2169 1220.63,278.2169 1256.97,278.2169" fill="none" id="clean-to-es" style="stroke:#181818;stroke-width:1;"/><polygon fill="#181818" points="1261.97,278.2169,1252.97,274.2169,1256.97,278.2169,1252.97,282.2169,1261.97,278.2169" style="stroke:#181818;stroke-width:1;stroke-linejoin:miter;stroke-miterlimit:10;"/><text fill="#000000" font-family="sans-serif" font-size="13" lengthAdjust="spacing" textLength="91.2539" x="1152.9" y="271.2838">delete chunks</text></g><!--link user to proxy--><g class="link" data-entity-1="ent0001" data-entity-2="ent0017" data-link-type="dependency" data-source-line="35" id="lnk29"><path d="M70.65,278.2169 C104.97,278.2169 154.92,278.2169 197.66,278.2169" fill="none" id="user-to-proxy" style="stroke:#181818;stroke-width:1;"/><polygon fill="#181818" points="202.66,278.2169,193.66,274.2169,197.66,278.2169,193.66,282.2169,202.66,278.2169" style="stroke:#181818;stroke-width:1;stroke-linejoin:miter;stroke-miterlimit:10;"/><text fill="#000000" font-family="sans-serif" font-size="13" lengthAdjust="spacing" textLength="96.3257" x="88.65" y="271.2838">retrieval query</text></g><!--link proxy to rag--><g class="link" data-entity-1="ent0017" data-entity-2="ent0016" data-link-type="dependency" data-source-line="36" id="lnk30"><path d="M273.95,254.6969 C285.47,227.7769 308.49,185.0369 344.12,166.5969 C411.23,131.8769 442.98,141.1369 514.12,166.5969 C566.18,185.2269 609.3596,229.5076 632.0996,256.0876" fill="none" id="proxy-to-rag" style="stroke:#181818;stroke-width:1;"/><polygon fill="#181818" points="635.35,259.8869,632.5387,250.4478,632.0996,256.0876,626.4598,255.6485,635.35,259.8869" style="stroke:#181818;stroke-width:1;stroke-linejoin:miter;stroke-miterlimit:10;"/><text fill="#000000" font-family="sans-serif" font-size="13" lengthAdjust="spacing" textLength="59.0459" x="445.62" y="141.7638">/retrieval</text></g><?plantuml-src RP91ZzCm48Nl_XMZFMqFa79RSa0gfPIAHIqaAov8bUDCKYk9dRMTbWZntndRRJP2UxFVDtuUlx5jfEgvuHqKN3IrqOCgrxhL1YudwP0vwLg47wljvrPVuEj7sFSMLaPuADnWa34k79NVVPBL24yMpHrm2mCjcA4IhceoYFIdDar5Fg6YzCeV1d2_wtfjtC8lroroDVHXdJdk1hjWV-S-JN7KlJsI-ndDBtMVFhnRBXV1aFJebyWNmqJC71FxccN1dJWTuvct_HYyWlRVlLUdMqdOif8xNd1B5OSjTEYu5mBlwndy9jLk3vLiqGROIINrd8_PzqSml3vE-NIZVMvd9PiCn6bGJJH0E-_kDf_LOHSe6J6bIz-LqRz7I1-MxvUnAxzdp8y7tdo8GqZ16LdNfD0efQP7UPMeJpI5Btb-WCC-ovFj9cTU8nG28cY7WYm5MdiZ8PTNINWHaMppk5dd48V1eXFXlYPca9TWz6McXwnkA4GuOrTBgUX13aejPf1I82Jed4FwkYnsDZjLOek4mga9edqXCV0fhJw6IPrGO7ZcBJmFQ4OMzUd6PEACfa0sJlUWg-kd0jWfwgb3vSZ0ZagafD7lELk8tu3YhqXIU4d4YIQCPHBxAHcg4hpbFm00?></g></svg>